<svg width="373" height="100" viewBox="0 0 373 100" fill="none" xmlns="http://www.w3.org/2000/svg">
<path d="M14.0388 71.5354C13.1804 72.3053 12.3466 73.1031 11.5373 73.9271C11.3014 74.1662 11.0737 74.4136 10.8411 74.6577C10.2481 75.2834 9.66823 75.9239 9.10144 76.5792C8.85572 76.8642 8.60345 77.1427 8.36264 77.431C7.69592 78.2353 7.05214 79.0642 6.42801 79.9095C6.14462 80.2928 5.87105 80.686 5.59584 81.0775C5.15683 81.7032 4.73255 82.3421 4.31647 82.9892C4.09696 83.3315 3.86926 83.6674 3.6563 84.0163C3.64647 84.0359 3.635 84.0523 3.62354 84.072C3.61862 84.0785 3.61862 84.0884 3.61535 84.0949C2.26389 86.3195 1.04676 88.6489 0 91.0897L3.01088 92.3806C3.37454 91.532 3.78571 90.713 4.19033 89.8906L5.36159 96.9198C5.491 97.7078 6.1741 98.2877 6.97515 98.2877H13.5277C13.7357 98.2877 13.9421 98.2483 14.137 98.1713L21.9198 95.0573L32.9526 96.6331C33.7045 96.7445 34.4252 96.3219 34.7054 95.6208L37.7818 87.9265L50.433 80.0193C50.8426 79.7637 51.1178 79.3394 51.1866 78.8611L52.8247 67.3942C52.9443 66.5637 52.4152 65.7774 51.601 65.5726L45.3024 63.9984L41.4348 61.5576C41.7034 61.5068 41.9721 61.4527 42.2424 61.4069C43.1073 61.2578 43.9739 61.1333 44.8454 61.0268C45.2664 60.976 45.689 60.9269 46.1133 60.8859C46.9733 60.8024 47.8366 60.7434 48.6999 60.7025C49.1471 60.6812 49.5959 60.6631 50.0464 60.6533C50.9408 60.6337 51.8353 60.6369 52.7313 60.6615C53.0622 60.6713 53.3931 60.6795 53.724 60.6959C53.747 60.6975 53.7715 60.6975 53.7945 60.6992C54.7085 60.7434 55.6226 60.8204 56.5351 60.9121C56.8873 60.9482 57.2394 60.976 57.59 61.0203C58.4959 61.13 59.3969 61.2774 60.2978 61.4347C60.6533 61.4969 61.0137 61.5461 61.3675 61.6165C62.3013 61.8 63.2268 62.0261 64.1523 62.2603C65.3383 62.5634 66.5112 62.9041 67.6694 63.2874C68.1772 63.4561 68.6818 63.6331 69.1847 63.8165C69.8514 64.0606 70.5148 64.3112 71.1717 64.5815C71.6763 64.7896 72.1726 65.014 72.669 65.2384C72.8508 65.3203 73.031 65.4072 73.2128 65.4907L67.137 67.2271C66.6685 67.3614 66.2835 67.6973 66.087 68.1428C65.8904 68.5884 65.9035 69.0995 66.1214 69.5352L67.232 71.7549L61.515 77.472C60.8745 78.1125 60.8745 79.1478 61.515 79.7883L68.0675 86.3408C68.4148 86.6881 68.8914 86.8666 69.3878 86.8126C69.876 86.7651 70.3166 86.4997 70.5885 86.0918L76.6529 76.992H80.6909V82.5928L70.0496 88.6735C69.9235 88.7456 69.8072 88.834 69.704 88.9372L66.4277 92.2135C65.8757 92.7655 65.7888 93.6305 66.2229 94.2808L69.4992 99.1952L72.225 97.3785L69.6941 93.5813L71.8663 91.4092L83.1432 84.9648C83.6526 84.6748 83.9671 84.1326 83.9671 83.5445V75.3539C83.9671 74.4496 83.2333 73.7157 82.329 73.7157H75.7765C75.2294 73.7157 74.7183 73.9893 74.4136 74.4447L68.9701 82.6108L64.9878 78.6301L70.3821 73.2358C70.8801 72.7378 71.0046 71.9761 70.6901 71.3454L69.9349 69.835L77.4654 67.6842C77.5293 67.7218 77.5965 67.753 77.6603 67.7906C77.911 67.9381 78.1485 68.1019 78.3975 68.2526C79.1936 68.7375 79.9865 69.2305 80.7597 69.758C81.4657 70.2413 82.1537 70.7458 82.8335 71.2602C83.0154 71.3978 83.2038 71.5223 83.384 71.6615C88.9487 75.9911 93.6042 81.4068 97.0558 87.6153L97.0623 87.612C97.064 87.6153 97.0656 87.6169 97.0672 87.6202L99.9307 86.0295C98.0403 82.6255 95.8157 79.4754 93.3241 76.5972C93.2783 76.5448 93.2275 76.4956 93.1816 76.4416C92.4019 75.5488 91.6008 74.6806 90.7686 73.8435C90.5917 73.665 90.4033 73.4995 90.2248 73.3226C89.5122 72.6247 88.7931 71.9351 88.0461 71.2782C87.7627 71.0292 87.4662 70.795 87.1779 70.5509C86.5161 69.9906 85.8526 69.4337 85.1662 68.9062C84.7927 68.6195 84.4045 68.3509 84.0245 68.0724C83.9999 68.0544 83.977 68.038 83.9524 68.02L87.1009 60.4617L91.9989 49.8499L96.9002 40.0473C97.1 39.6476 97.1279 39.1824 96.9771 38.7614C96.8264 38.3404 96.5086 37.9996 96.1007 37.8178L95.6568 37.6212L98.5383 31.8567C98.9085 31.1179 98.6693 30.2185 97.9813 29.7615L93.0669 26.4852L88.1526 23.209C87.761 22.9469 87.2745 22.8666 86.8224 22.9895C86.3686 23.1091 85.9886 23.4203 85.7773 23.8397L81.9359 31.5241L81.356 31.2669C80.5516 30.9098 79.6163 31.2473 79.2248 32.0303L74.3104 41.8591L69.396 51.6878C69.3878 51.7042 69.3894 51.7206 69.3829 51.737C69.3763 51.7517 69.3616 51.7616 69.3567 51.7747L66.5866 58.2404L64.2834 45.576C64.1409 44.7962 63.4627 44.2294 62.6715 44.2294H60.6304L57.6932 33.9502C57.4934 33.2474 56.8496 32.7626 56.119 32.7626H55.8683L52.8198 14.4729C52.8116 14.4204 52.7821 14.3778 52.7674 14.3271C53.783 13.7701 54.4808 12.7053 54.4808 11.4669V8.19064C54.4808 6.38378 53.0114 4.91438 51.2046 4.91438V0H47.9283V4.91438C46.1215 4.91438 44.6521 6.38378 44.6521 8.19064V11.4669C44.6521 12.7053 45.3499 13.7701 46.3639 14.3287C46.3508 14.3795 46.3213 14.4221 46.3115 14.4745L43.2646 32.7626H43.0139C42.2833 32.7626 41.6396 33.2474 41.4397 33.9502L38.5025 44.2294H36.4614C35.6702 44.2294 34.992 44.7962 34.8495 45.5743L32.489 58.5549L26.5147 43.6201L19.9622 27.2388C19.954 27.2175 19.9344 27.2027 19.9245 27.1815C19.8557 27.0275 19.7624 26.8882 19.6493 26.7605C19.6231 26.731 19.6002 26.6998 19.5723 26.672C19.556 26.6572 19.5461 26.6376 19.5298 26.6229L4.78661 13.5178C4.32302 13.1067 3.66777 12.992 3.08951 13.2213C2.51289 13.4523 2.11646 13.988 2.06568 14.6072L0.427551 34.2647C0.425913 34.286 0.430828 34.3073 0.430828 34.3286C0.42919 34.3679 0.435742 34.4072 0.435742 34.4465C0.440656 34.6169 0.470143 34.784 0.525839 34.9413C0.53403 34.9642 0.529115 34.9871 0.538944 35.0084L7.09145 51.3897L14.8627 70.8195C14.7399 70.926 14.617 71.0308 14.4942 71.139C14.3434 71.2717 14.1895 71.4011 14.0388 71.5354ZM41.0154 58.2682C43.0254 55.6505 46.1624 54.0582 49.5665 54.0582C52.7133 54.0582 55.6406 55.4293 57.6539 57.7162C57.4934 57.6981 57.3345 57.6949 57.1756 57.6785C56.7103 57.6293 56.2467 57.5818 55.7799 57.5441C55.2065 57.4966 54.6299 57.4606 54.0533 57.4311C53.7502 57.4147 53.4455 57.3918 53.1441 57.382C52.8231 57.3705 52.502 57.3738 52.1809 57.3689C51.8549 57.3623 51.5322 57.3345 51.2046 57.3345C50.8917 57.3345 50.5837 57.364 50.2709 57.3689C50.1267 57.3721 49.9809 57.3656 49.8368 57.3689C49.2667 57.382 48.6999 57.4164 48.1315 57.4475C47.5548 57.4786 46.9782 57.5097 46.4032 57.5589C46.1444 57.5818 45.8856 57.6015 45.6268 57.6277C45.0927 57.6817 44.5603 57.7555 44.0279 57.8243C43.5529 57.8849 43.0762 57.9357 42.6028 58.0094C42.3456 58.0487 42.09 58.1027 41.8329 58.147C41.5626 58.1928 41.2874 58.2174 41.0154 58.2682ZM44.254 67.1141L49.3732 68.3935L48.0512 77.644L35.5932 85.43C35.2984 85.6151 35.069 85.8887 34.9396 86.2114L32.1417 93.2078L21.9493 91.7515C21.6626 91.7106 21.3743 91.745 21.1089 91.8514L13.2131 95.0114H8.36428L6.73926 85.2613C6.75728 85.2334 6.77529 85.2072 6.79331 85.1794C7.29786 84.375 7.82861 83.5904 8.37247 82.8188C8.63129 82.4519 8.89503 82.0899 9.16205 81.7311C9.67314 81.0431 10.199 80.3682 10.7412 79.708C10.9902 79.405 11.2457 79.1068 11.5013 78.8087C12.0697 78.1485 12.6545 77.5015 13.2541 76.8724C13.472 76.6431 13.6898 76.4121 13.9126 76.1877C14.6727 75.4178 15.4525 74.6675 16.2568 73.9467C16.3731 73.8435 16.4927 73.7436 16.609 73.642C17.143 73.1735 17.7 72.7312 18.252 72.284C19.0825 71.6124 19.9327 70.9719 20.7993 70.3543C21.0811 70.1528 21.3595 69.9464 21.6462 69.7515C22.5521 69.1323 23.4809 68.5507 24.4212 67.9905C24.6702 67.8431 24.911 67.6842 25.1616 67.54C26.3198 66.8766 27.5009 66.2557 28.7098 65.6824C28.7999 65.6398 28.8917 65.5972 28.9834 65.5546C30.1972 64.9862 31.434 64.4636 32.6937 63.9885C33.3572 63.7379 34.0354 63.52 34.7103 63.2972C35.4573 63.0499 36.2108 62.8238 36.9676 62.6109L43.7806 66.911C43.9247 67.0027 44.0853 67.0715 44.254 67.1141ZM69.2535 60.3306L71.6828 54.6627L83.5035 60.573L81.1987 66.1066C80.8465 65.8806 80.4828 65.6807 80.1274 65.4645C79.7686 65.2466 79.4099 65.0271 79.0462 64.8158C78.902 64.7323 78.7628 64.6422 78.6187 64.5602C78.5777 64.5373 78.54 64.5095 78.4991 64.4865C78.4974 64.4865 78.4958 64.4865 78.4942 64.4849C77.9274 64.1655 77.3491 63.8739 76.7725 63.5757C76.5235 63.4463 76.2778 63.312 76.0255 63.1859C75.0672 62.7075 74.0958 62.2587 73.1129 61.836C73.031 61.8 72.9491 61.7607 72.8672 61.7263C71.6779 61.2234 70.4772 60.75 69.2535 60.3306ZM92.659 36.2894L90.2952 35.2394L92.7934 30.2415L94.9606 31.6863L92.659 36.2894ZM87.879 26.9636L90.0462 28.4084L87.2975 33.906L84.9336 32.8559L87.879 26.9636ZM81.1528 35.5031C81.238 35.5932 81.3134 35.6915 81.4215 35.7636L86.3359 39.0399L91.2502 42.3161C91.4698 42.4635 91.722 42.5356 91.9792 42.5651L89.7563 47.011L85.8412 45.2713L78.0109 41.7903L81.1528 35.5031ZM76.5415 44.7242L78.5073 45.5973L88.336 49.9662L84.8255 57.5704L73.0588 51.6878L76.5415 44.7242ZM47.9283 8.19064H51.2046L51.2062 11.4669H47.9283V8.19064ZM49.3158 16.3813H49.8171L52.5479 32.7626H46.5867L49.3158 16.3813ZM44.2491 36.0388H44.6521H54.4808H54.8838L57.2247 44.2294H41.9099L44.2491 36.0388ZM37.8276 47.5057H39.7377H59.3952H61.3053L63.3349 58.6712C63.1678 58.6335 62.9975 58.6106 62.8304 58.5762C62.5601 58.5188 62.2898 58.4599 62.0179 58.4058C59.6147 53.7584 54.8412 50.782 49.5665 50.782C43.9493 50.782 38.8908 54.1123 36.6629 59.2658C36.4336 59.3281 36.2092 59.4018 35.9815 59.4657C35.8668 59.4984 35.7521 59.5214 35.6375 59.5541L37.8276 47.5057ZM29.8778 61.5805C29.2258 61.8491 28.582 62.1325 27.9432 62.4258C27.7253 62.5257 27.5058 62.6223 27.2879 62.7255C26.1937 63.2448 25.1174 63.7969 24.0625 64.3833C23.9478 64.4472 23.838 64.5144 23.7234 64.5783C23.6972 64.593 23.6709 64.6094 23.6431 64.6241C23.5989 64.6487 23.5563 64.6749 23.5137 64.6995C22.5783 65.2335 21.661 65.7954 20.76 66.3818C20.647 66.4556 20.5307 66.5276 20.4176 66.6014C19.4315 67.255 18.4666 67.9364 17.5247 68.6523L10.7428 51.6944L24.0821 46.359L30.1268 61.4691C30.0416 61.5035 29.9614 61.5461 29.8778 61.5805ZM4.19033 35.3131L17.5296 29.9777L22.865 43.3154L9.52571 48.6524L4.19033 35.3131ZM5.06018 18.1439L15.3738 27.3109L3.91349 31.8943L5.06018 18.1439Z" fill="#FC4C69"/>
<path d="M13.5277 34.4006C10.8182 34.4006 8.61328 36.6056 8.61328 39.315C8.61328 42.0245 10.8182 44.2294 13.5277 44.2294C16.2371 44.2294 18.442 42.0245 18.442 39.315C18.442 36.6056 16.2371 34.4006 13.5277 34.4006ZM13.5277 40.9531C12.6251 40.9531 11.8895 40.2176 11.8895 39.315C11.8895 38.4124 12.6251 37.6769 13.5277 37.6769C14.4303 37.6769 15.1658 38.4124 15.1658 39.315C15.1658 40.2176 14.4303 40.9531 13.5277 40.9531Z" fill="#FC4C69"/>
<path d="M144.369 56.7983C144.369 57.7065 144.525 58.4656 144.836 59.0754C145.147 59.6852 145.874 59.9902 147.016 59.9902C147.535 59.9902 148.028 59.9642 148.495 59.9123V64.8169C147.561 64.9207 146.692 64.9726 145.887 64.9726C144.226 64.9726 142.883 64.8364 141.858 64.5639C140.833 64.2914 140.035 63.7659 139.464 62.9874C138.893 62.2089 138.608 61.0931 138.608 59.6398V47.7676H136V42.6683H138.608V36.9463H144.369V42.6683H148.651V47.7676H144.369V56.7983V56.7983ZM163.326 48.6045C162.21 48.8769 161.185 49.5192 160.251 50.5313C159.316 51.5433 158.849 53.0225 158.849 54.9688V64.4277H153.049V43.0186H158.849V45.8602C159.809 44.5886 160.984 43.7258 162.372 43.2717C163.76 42.8175 165.025 42.6034 166.167 42.6294V48.3125C165.389 48.2347 164.442 48.332 163.326 48.6045V48.6045ZM185.474 62.2868C184.981 62.9615 184.131 63.5648 182.925 64.0968C181.718 64.6288 180.401 64.8948 178.974 64.8948C176.768 64.8948 174.854 64.4017 173.232 63.4156C171.61 62.4295 170.371 61.0866 169.515 59.3868C168.658 57.6871 168.23 55.7992 168.23 53.7232C168.23 51.6471 168.658 49.7592 169.515 48.0595C170.371 46.3598 171.61 45.0168 173.232 44.0307C174.854 43.0446 176.768 42.5515 178.974 42.5515C180.453 42.5515 181.757 42.8046 182.886 43.3106C184.015 43.8166 184.877 44.4589 185.474 45.2374V43.0186H191.235V64.4277H185.474V62.2868V62.2868ZM184.112 49.344C183.048 48.2152 181.621 47.6508 179.83 47.6508C178.014 47.6508 176.58 48.2152 175.529 49.344C174.478 50.4729 173.952 51.9326 173.952 53.7232C173.952 55.4618 174.491 56.9021 175.568 58.0439C176.645 59.1857 178.065 59.7566 179.83 59.7566C181.647 59.7566 183.08 59.2181 184.131 58.1412C185.182 57.0643 185.708 55.5916 185.708 53.7232C185.708 51.9326 185.176 50.4729 184.112 49.344ZM194.271 43.0965H200.733L205.716 53.5675L210.698 43.0965H217.199L205.716 65.3619L194.271 43.0965ZM224.886 63.9216C223.109 63.221 221.584 62.0337 220.313 60.36C219.041 58.6862 218.405 56.4998 218.405 53.801C218.405 51.1022 219.048 48.9223 220.332 47.2615C221.617 45.6007 223.154 44.42 224.945 43.7193C226.735 43.0186 228.435 42.6683 230.044 42.6683C231.912 42.6683 233.69 43.0835 235.377 43.9139C237.064 44.7443 238.445 45.964 239.522 47.5729C240.599 49.1819 241.164 51.0892 241.216 53.295C241.216 53.9697 241.203 54.5536 241.177 55.0466C241.151 55.5397 241.125 55.8511 241.099 55.9808H224.205C224.517 57.486 225.295 58.511 226.541 59.0559C227.786 59.6009 228.954 59.8734 230.044 59.8734C231.445 59.8734 232.561 59.6204 233.392 59.1143C234.222 58.6083 234.936 58.0309 235.532 57.3822L240.048 59.9902C237.608 63.3118 234.274 64.9726 230.044 64.9726C228.383 64.9726 226.664 64.6223 224.886 63.9216V63.9216ZM226.074 48.9548C225.062 49.7463 224.491 50.7129 224.361 51.8547H235.065C234.988 51.18 234.728 50.5313 234.287 49.9085C233.846 49.2857 233.255 48.7731 232.516 48.3709C231.776 47.9687 230.939 47.7676 230.005 47.7676C228.396 47.7676 227.086 48.1633 226.074 48.9548V48.9548ZM245.964 35H251.803V64.4277H245.964V35ZM257.409 35H263.247V64.4277H257.409V35ZM285.046 62.2868C284.553 62.9615 283.703 63.5648 282.496 64.0968C281.289 64.6288 279.972 64.8948 278.545 64.8948C276.339 64.8948 274.425 64.4017 272.804 63.4156C271.182 62.4295 269.943 61.0866 269.086 59.3868C268.23 57.6871 267.802 55.7992 267.802 53.7232C267.802 51.6471 268.23 49.7592 269.086 48.0595C269.943 46.3598 271.182 45.0168 272.804 44.0307C274.425 43.0446 276.339 42.5515 278.545 42.5515C280.024 42.5515 281.328 42.8046 282.457 43.3106C283.586 43.8166 284.449 44.4589 285.046 45.2374V43.0186H290.807V64.4277H285.046V62.2868V62.2868ZM283.683 49.344C282.619 48.2152 281.192 47.6508 279.401 47.6508C277.585 47.6508 276.151 48.2152 275.1 49.344C274.049 50.4729 273.524 51.9326 273.524 53.7232C273.524 55.4618 274.062 56.9021 275.139 58.0439C276.216 59.1857 277.637 59.7566 279.401 59.7566C281.218 59.7566 282.652 59.2181 283.703 58.1412C284.754 57.0643 285.279 55.5916 285.279 53.7232C285.279 51.9326 284.747 50.4729 283.683 49.344ZM314.493 45.0038C315.829 46.5868 316.497 48.8445 316.497 51.7769V64.4277H310.542V51.7769C310.542 48.8964 309.166 47.4562 306.416 47.4562C305.352 47.4562 304.392 47.8778 303.535 48.7212C302.679 49.5646 302.277 51.0243 302.329 53.1004V64.4277H296.529V43.0186H302.329V44.926C303.029 44.2253 303.912 43.6674 304.976 43.2522C306.039 42.837 307.065 42.6294 308.051 42.6294C311.009 42.6294 313.156 43.4209 314.493 45.0038V45.0038ZM338.413 62.2868C337.919 62.9615 337.07 63.5648 335.863 64.0968C334.656 64.6288 333.339 64.8948 331.912 64.8948C329.706 64.8948 327.792 64.4017 326.17 63.4156C324.549 62.4295 323.309 61.0866 322.453 59.3868C321.597 57.6871 321.169 55.7992 321.169 53.7232C321.169 51.6471 321.597 49.7592 322.453 48.0595C323.309 46.3598 324.549 45.0168 326.17 44.0307C327.792 43.0446 329.706 42.5515 331.912 42.5515C333.391 42.5515 334.695 42.8046 335.824 43.3106C336.953 43.8166 337.816 44.4589 338.413 45.2374V35H344.173V64.4277H338.413V62.2868V62.2868ZM337.05 49.344C335.986 48.2152 334.559 47.6508 332.768 47.6508C330.952 47.6508 329.518 48.2152 328.467 49.344C327.416 50.4729 326.891 51.9326 326.891 53.7232C326.891 55.4618 327.429 56.9021 328.506 58.0439C329.583 59.1857 331.004 59.7566 332.768 59.7566C334.585 59.7566 336.019 59.2181 337.07 58.1412C338.121 57.0643 338.646 55.5916 338.646 53.7232C338.646 51.9326 338.114 50.4729 337.05 49.344ZM354.703 63.4351C352.925 62.436 351.517 61.0801 350.479 59.3674C349.441 57.6546 348.922 55.7862 348.922 53.7621C348.922 51.7639 349.441 49.9085 350.479 48.1957C351.517 46.483 352.925 45.1271 354.703 44.128C356.48 43.1289 358.42 42.6294 360.522 42.6294C362.624 42.6294 364.57 43.1289 366.361 44.128C368.152 45.1271 369.572 46.483 370.623 48.1957C371.674 49.9085 372.2 51.7639 372.2 53.7621C372.2 55.7862 371.674 57.6546 370.623 59.3674C369.572 61.0801 368.152 62.436 366.361 63.4351C364.57 64.4342 362.624 64.9337 360.522 64.9337C358.42 64.9337 356.48 64.4342 354.703 63.4351ZM357.564 48.5266C356.656 49.0586 355.942 49.7852 355.423 50.7064C354.904 51.6277 354.644 52.6462 354.644 53.7621C354.644 54.9298 354.897 55.9743 355.403 56.8956C355.91 57.8168 356.61 58.5434 357.505 59.0754C358.401 59.6074 359.406 59.8734 360.522 59.8734C361.612 59.8734 362.605 59.6074 363.5 59.0754C364.395 58.5434 365.102 57.8103 365.621 56.8761C366.14 55.9419 366.4 54.9039 366.4 53.7621C366.4 52.6462 366.14 51.6277 365.621 50.7064C365.102 49.7852 364.395 49.0586 363.5 48.5266C362.605 47.9946 361.612 47.7286 360.522 47.7286C359.458 47.7286 358.472 47.9946 357.564 48.5266V48.5266Z" fill="#FDFFFC"/>
</svg>
