<svg width="236" height="142" viewBox="0 0 236 142" fill="none" xmlns="http://www.w3.org/2000/svg">
<path d="M82.0211 71.3946C81.1638 72.163 80.331 72.9592 79.5228 73.7816C79.2872 74.0203 79.0598 74.2672 78.8275 74.5108C78.2352 75.1353 77.6561 75.7746 77.09 76.4285C76.8446 76.713 76.5926 76.9909 76.3521 77.2787C75.6862 78.0814 75.0433 78.9087 74.4199 79.7523C74.1369 80.1348 73.8637 80.5272 73.5888 80.918C73.1503 81.5425 72.7266 82.1801 72.311 82.8259C72.0918 83.1676 71.8644 83.5027 71.6517 83.851C71.6419 83.8706 71.6304 83.8869 71.619 83.9066C71.6141 83.9131 71.6141 83.9229 71.6108 83.9294C70.261 86.1496 69.0454 88.4745 68 90.9105L71.0071 92.1988C71.3703 91.3519 71.7809 90.5345 72.1851 89.7137L73.3548 96.7291C73.4841 97.5155 74.1663 98.0943 74.9664 98.0943H81.5106C81.7184 98.0943 81.9246 98.055 82.1192 97.9782L89.8922 94.8702L100.911 96.443C101.662 96.5542 102.382 96.1324 102.662 95.4326L105.734 87.7535L118.37 79.8618C118.779 79.6068 119.053 79.1833 119.122 78.7059L120.758 67.2616C120.878 66.4327 120.349 65.6479 119.536 65.4436L113.245 63.8724L109.383 61.4364C109.651 61.3858 109.919 61.3318 110.189 61.286C111.053 61.1372 111.919 61.013 112.789 60.9067C113.209 60.856 113.631 60.807 114.055 60.7661C114.914 60.6827 115.776 60.6239 116.639 60.583C117.085 60.5618 117.534 60.5438 117.983 60.534C118.877 60.5144 119.77 60.5176 120.665 60.5421C120.995 60.552 121.326 60.5601 121.656 60.5765C121.679 60.5781 121.704 60.5781 121.727 60.5797C122.64 60.6239 123.553 60.7007 124.464 60.7923C124.816 60.8282 125.167 60.856 125.518 60.9002C126.422 61.0097 127.322 61.1569 128.222 61.3138C128.577 61.3759 128.937 61.425 129.29 61.4953C130.223 61.6784 131.147 61.904 132.072 62.1378C133.256 62.4403 134.428 62.7803 135.584 63.1629C136.091 63.3313 136.595 63.5079 137.098 63.691C137.763 63.9346 138.426 64.1847 139.082 64.4545C139.586 64.6621 140.082 64.8861 140.577 65.1101C140.759 65.1918 140.939 65.2785 141.121 65.3618L135.052 67.0948C134.585 67.2289 134.2 67.5641 134.004 68.0088C133.807 68.4534 133.821 68.9635 134.038 69.3984L135.147 71.6137L129.438 77.3195C128.798 77.9588 128.798 78.992 129.438 79.6313L135.982 86.1709C136.329 86.5175 136.805 86.6957 137.3 86.6418C137.788 86.5943 138.228 86.3295 138.5 85.9224L144.556 76.8405H148.589V82.4302L137.961 88.499C137.835 88.5709 137.719 88.6592 137.616 88.7622L134.344 92.032C133.793 92.583 133.706 93.4462 134.14 94.0953L137.412 99L140.134 97.1869L137.606 93.3972L139.776 91.2293L151.038 84.7976C151.547 84.5082 151.861 83.9671 151.861 83.3801V75.2056C151.861 74.3031 151.128 73.5707 150.225 73.5707H143.681C143.135 73.5707 142.624 73.8437 142.32 74.2982L136.883 82.4482L132.906 78.4754L138.294 73.0917C138.791 72.5947 138.915 71.8344 138.601 71.205L137.847 69.6976L145.368 67.551C145.432 67.5886 145.499 67.6196 145.563 67.6572C145.813 67.8044 146.05 67.9679 146.299 68.1183C147.094 68.6022 147.886 69.0943 148.658 69.6208C149.363 70.1031 150.05 70.6066 150.729 71.12C150.911 71.2573 151.099 71.3816 151.279 71.5205C156.837 75.8416 161.486 81.2466 164.934 87.4429L164.94 87.4396C164.942 87.4429 164.943 87.4445 164.945 87.4478L167.805 85.8603C165.917 82.4629 163.695 79.319 161.207 76.4465C161.161 76.3942 161.11 76.3451 161.064 76.2912C160.286 75.4002 159.485 74.5337 158.654 73.6982C158.478 73.52 158.29 73.3549 158.111 73.1783C157.4 72.4818 156.681 71.7936 155.935 71.138C155.652 70.8895 155.356 70.6557 155.068 70.4121C154.407 69.8529 153.745 69.2971 153.059 68.7706C152.686 68.4845 152.298 68.2164 151.919 67.9385C151.894 67.9205 151.871 67.9041 151.847 67.8861L154.991 60.3427L159.883 49.7518L164.778 39.9685C164.978 39.5696 165.006 39.1053 164.855 38.6851C164.705 38.2649 164.387 37.9249 163.98 37.7434L163.536 37.5472L166.414 31.794C166.784 31.0566 166.545 30.1591 165.858 29.7029L160.95 26.4331L156.042 23.1633C155.651 22.9017 155.165 22.8216 154.713 22.9442C154.26 23.0636 153.88 23.3742 153.669 23.7928L149.833 31.4621L149.254 31.2054C148.45 30.849 147.516 31.1858 147.125 31.9673L142.217 41.7767L137.309 51.5861C137.3 51.6025 137.302 51.6188 137.296 51.6352C137.289 51.6499 137.274 51.6597 137.269 51.6728L134.503 58.1258L132.202 45.4863C132.06 44.7081 131.383 44.1424 130.593 44.1424H128.554L125.621 33.8834C125.421 33.182 124.778 32.6981 124.048 32.6981H123.798L120.753 14.4444C120.745 14.3921 120.716 14.3496 120.701 14.2989C121.715 13.743 122.412 12.6803 122.412 11.4443V8.17452C122.412 6.37122 120.945 4.90471 119.14 4.90471V0H115.868V4.90471C114.063 4.90471 112.596 6.37122 112.596 8.17452V11.4443C112.596 12.6803 113.293 13.743 114.306 14.3005C114.292 14.3512 114.263 14.3937 114.253 14.446L111.21 32.6981H110.96C110.23 32.6981 109.587 33.182 109.388 33.8834L106.454 44.1424H104.416C103.625 44.1424 102.948 44.7081 102.806 45.4847L100.448 58.4397L94.4813 43.5342L87.9371 27.1852C87.9289 27.1639 87.9093 27.1492 87.8995 27.128C87.8307 26.9743 87.7375 26.8353 87.6246 26.7078C87.5984 26.6784 87.5755 26.6473 87.5477 26.6195C87.5313 26.6048 87.5215 26.5852 87.5052 26.5705L72.7806 13.4912C72.3176 13.0809 71.6631 12.9664 71.0856 13.1953C70.5097 13.4258 70.1138 13.9604 70.0631 14.5784L68.427 34.1973C68.4254 34.2185 68.4303 34.2398 68.4303 34.2611C68.4286 34.3003 68.4352 34.3395 68.4352 34.3788C68.4401 34.5488 68.4696 34.7156 68.5252 34.8725C68.5334 34.8954 68.5284 34.9183 68.5383 34.9395L75.0825 51.2886L82.844 70.6802C82.7213 70.7865 82.5986 70.8911 82.4759 70.999C82.3254 71.1314 82.1716 71.2606 82.0211 71.3946ZM108.964 58.1535C110.971 55.541 114.104 53.9518 117.504 53.9518C120.647 53.9518 123.571 55.3203 125.581 57.6026C125.421 57.5846 125.262 57.5813 125.104 57.565C124.639 57.5159 124.176 57.4685 123.71 57.4309C123.137 57.3835 122.561 57.3475 121.985 57.3181C121.683 57.3018 121.378 57.2789 121.077 57.2691C120.757 57.2576 120.436 57.2609 120.115 57.256C119.79 57.2494 119.467 57.2217 119.14 57.2217C118.828 57.2217 118.52 57.2511 118.208 57.256C118.064 57.2593 117.918 57.2527 117.774 57.256C117.205 57.2691 116.639 57.3034 116.071 57.3345C115.495 57.3655 114.919 57.3966 114.345 57.4456C114.086 57.4685 113.828 57.4881 113.569 57.5143C113.036 57.5683 112.504 57.6418 111.973 57.7105C111.498 57.771 111.022 57.8217 110.549 57.8952C110.292 57.9345 110.037 57.9884 109.78 58.0326C109.51 58.0783 109.235 58.1029 108.964 58.1535ZM112.198 66.982L117.311 68.2589L115.991 77.4912L103.548 85.2619C103.254 85.4466 103.025 85.7197 102.896 86.0417L100.101 93.0244L89.9216 91.571C89.6353 91.5301 89.3474 91.5645 89.0823 91.6707L81.1965 94.8245H76.3537L74.7308 85.0935C74.7488 85.0657 74.7668 85.0396 74.7848 85.0118C75.2887 84.209 75.8188 83.4259 76.3619 82.6559C76.6204 82.2896 76.8838 81.9283 77.1505 81.5703C77.661 80.8836 78.1861 80.21 78.7277 79.5512C78.9764 79.2487 79.2316 78.9512 79.4868 78.6536C80.0545 77.9948 80.6386 77.349 81.2374 76.7212C81.455 76.4923 81.6726 76.2617 81.8951 76.0378C82.6542 75.2694 83.433 74.5206 84.2363 73.8012C84.3525 73.6982 84.4719 73.5985 84.5881 73.4971C85.1214 73.0295 85.6777 72.5881 86.229 72.1418C87.0585 71.4715 87.9076 70.8322 88.7731 70.2159C89.0545 70.0148 89.3327 69.8088 89.619 69.6142C90.5237 68.9962 91.4514 68.4158 92.3905 67.8567C92.6391 67.7096 92.8796 67.551 93.13 67.4071C94.2867 66.745 95.4663 66.1253 96.6737 65.5531C96.7637 65.5106 96.8553 65.4681 96.9469 65.4256C98.1592 64.8583 99.3945 64.3368 100.653 63.8626C101.315 63.6125 101.993 63.3951 102.667 63.1727C103.413 62.9258 104.165 62.7002 104.921 62.4877L111.725 66.7793C111.869 66.8709 112.03 66.9395 112.198 66.982ZM137.166 60.2119L139.593 54.5551L151.398 60.4539L149.096 65.9766C148.745 65.7509 148.382 65.5515 148.026 65.3357C147.668 65.1182 147.31 64.8992 146.947 64.6883C146.803 64.6049 146.664 64.515 146.52 64.4332C146.479 64.4103 146.441 64.3825 146.4 64.3596C146.399 64.3596 146.397 64.3596 146.395 64.358C145.829 64.0392 145.252 63.7482 144.676 63.4506C144.427 63.3215 144.182 63.1874 143.93 63.0615C142.973 62.5841 142.002 62.1362 141.021 61.7144C140.939 61.6784 140.857 61.6392 140.775 61.6048C139.588 61.1029 138.388 60.6304 137.166 60.2119ZM160.542 36.218L158.182 35.1701L160.677 30.182L162.841 31.624L160.542 36.218ZM155.768 26.9105L157.933 28.3525L155.188 33.8393L152.827 32.7913L155.768 26.9105ZM149.051 35.4333C149.136 35.5232 149.211 35.6213 149.319 35.6932L154.227 38.963L159.135 42.2329C159.355 42.38 159.607 42.4519 159.863 42.4814L157.643 46.9185L153.733 45.1822L145.913 41.708L149.051 35.4333ZM144.445 44.6362L146.408 45.5076L156.225 49.8679L152.719 57.4571L140.967 51.5861L144.445 44.6362ZM115.868 8.17452H119.14L119.142 11.4443H115.868V8.17452ZM117.254 16.349H117.754L120.482 32.6981H114.528L117.254 16.349ZM112.193 35.9679H112.596H122.412H122.815L125.153 44.1424H109.857L112.193 35.9679ZM105.78 47.4122H107.688H127.32H129.228L131.255 58.5557C131.088 58.5181 130.918 58.4952 130.751 58.4609C130.481 58.4037 130.211 58.3448 129.94 58.2909C127.54 53.6527 122.772 50.682 117.504 50.682C111.894 50.682 106.842 54.0058 104.617 59.1492C104.388 59.2113 104.164 59.2849 103.936 59.3487C103.822 59.3814 103.707 59.4043 103.593 59.4369L105.78 47.4122ZM97.8402 61.4593C97.189 61.7274 96.5461 62.0103 95.908 62.3029C95.6904 62.4027 95.4712 62.4991 95.2536 62.6021C94.1607 63.1204 93.0858 63.6714 92.0322 64.2566C91.9176 64.3204 91.808 64.3874 91.6935 64.4512C91.6673 64.4659 91.6411 64.4823 91.6133 64.497C91.5692 64.5215 91.5266 64.5477 91.4841 64.5722C90.5499 65.1052 89.6337 65.6659 88.7339 66.2512C88.621 66.3248 88.5048 66.3967 88.3919 66.4703C87.407 67.1226 86.4434 67.8028 85.5026 68.5172L78.7293 51.5927L92.0518 46.2678L98.0889 61.3481C98.0038 61.3825 97.9236 61.425 97.8402 61.4593ZM72.1851 35.2436L85.5075 29.9187L90.8362 43.2301L77.5137 48.5567L72.1851 35.2436ZM73.0538 18.1082L83.3545 27.2571L71.9086 31.8316L73.0538 18.1082Z" fill="#FC4C69"/>
<path d="M81.5106 34.333C78.8046 34.333 76.6024 36.5336 76.6024 39.2377C76.6024 41.9419 78.8046 44.1424 81.5106 44.1424C84.2167 44.1424 86.4188 41.9419 86.4188 39.2377C86.4188 36.5336 84.2167 34.333 81.5106 34.333ZM81.5106 40.8726C80.6091 40.8726 79.8745 40.1386 79.8745 39.2377C79.8745 38.3369 80.6091 37.6028 81.5106 37.6028C82.4121 37.6028 83.1467 38.3369 83.1467 39.2377C83.1467 40.1386 82.4121 40.8726 81.5106 40.8726Z" fill="#FC4C69"/>
<path d="M8.45598 133.209C8.45598 134.115 8.61148 134.873 8.92249 135.482C9.23351 136.09 9.9592 136.395 11.0996 136.395C11.6179 136.395 12.1104 136.369 12.5769 136.317V141.212C11.6438 141.315 10.7756 141.367 9.97216 141.367C8.31343 141.367 6.97219 141.231 5.94844 140.959C4.9247 140.687 4.12773 140.163 3.55754 139.386C2.98735 138.609 2.70226 137.495 2.70226 136.045V124.196H0.0975342V119.107H2.70226V113.396H8.45598V119.107H12.7324V124.196H8.45598V133.209V133.209ZM27.3888 125.031C26.2744 125.303 25.2506 125.944 24.3176 126.954C23.3845 127.964 22.918 129.441 22.918 131.383V140.823H17.1254V119.456H22.918V122.292C23.877 121.023 25.0498 120.162 26.4363 119.709C27.8229 119.256 29.0864 119.042 30.2268 119.068V124.74C29.4493 124.662 28.5033 124.759 27.3888 125.031V125.031ZM49.5095 138.687C49.0171 139.36 48.1683 139.962 46.9631 140.493C45.758 141.024 44.4426 141.29 43.0172 141.29C40.8142 141.29 38.9027 140.797 37.2829 139.813C35.663 138.829 34.4255 137.489 33.5702 135.792C32.7149 134.096 32.2873 132.212 32.2873 130.14C32.2873 128.068 32.7149 126.184 33.5702 124.487C34.4255 122.791 35.663 121.451 37.2829 120.467C38.9027 119.482 40.8142 118.99 43.0172 118.99C44.4945 118.99 45.7968 119.243 46.9242 119.748C48.0517 120.253 48.9134 120.894 49.5095 121.671V119.456H55.2632V140.823H49.5095V138.687V138.687ZM48.1489 125.769C47.0862 124.643 45.6608 124.08 43.8724 124.08C42.0582 124.08 40.6263 124.643 39.5766 125.769C38.5269 126.896 38.0021 128.353 38.0021 130.14C38.0021 131.875 38.5399 133.313 39.6155 134.452C40.6911 135.592 42.11 136.162 43.8724 136.162C45.6867 136.162 47.1186 135.624 48.1683 134.549C49.218 133.474 49.7428 132.005 49.7428 130.14C49.7428 128.353 49.2115 126.896 48.1489 125.769ZM58.2956 119.534H64.7491L69.7253 129.985L74.7015 119.534H81.1939L69.7253 141.756L58.2956 119.534ZM88.872 140.318C87.0966 139.619 85.5739 138.434 84.304 136.764C83.034 135.093 82.399 132.911 82.399 130.218C82.399 127.524 83.0405 125.349 84.3234 123.691C85.6063 122.033 87.142 120.855 88.9303 120.156C90.7186 119.456 92.4162 119.107 94.0231 119.107C95.8892 119.107 97.6645 119.521 99.3492 120.35C101.034 121.179 102.414 122.396 103.49 124.002C104.565 125.608 105.129 127.511 105.181 129.713C105.181 130.386 105.168 130.969 105.142 131.461C105.116 131.953 105.09 132.264 105.064 132.393H88.1916C88.5026 133.895 89.2802 134.918 90.5242 135.462C91.7683 136.006 92.9346 136.278 94.0231 136.278C95.4226 136.278 96.5371 136.026 97.3665 135.521C98.1958 135.015 98.9086 134.439 99.5047 133.792L104.014 136.395C101.578 139.71 98.2477 141.367 94.0231 141.367C92.3644 141.367 90.6473 141.018 88.872 140.318V140.318ZM90.0577 125.381C89.0469 126.171 88.4767 127.136 88.3471 128.275H99.0382C98.9604 127.602 98.7012 126.954 98.2606 126.333C97.82 125.711 97.2304 125.2 96.4918 124.798C95.7531 124.397 94.9173 124.196 93.9842 124.196C92.3773 124.196 91.0685 124.591 90.0577 125.381V125.381ZM109.924 111.454H115.755V140.823H109.924V111.454ZM121.353 111.454H127.185V140.823H121.353V111.454ZM148.956 138.687C148.463 139.36 147.614 139.962 146.409 140.493C145.204 141.024 143.889 141.29 142.463 141.29C140.26 141.29 138.349 140.797 136.729 139.813C135.109 138.829 133.871 137.489 133.016 135.792C132.161 134.096 131.733 132.212 131.733 130.14C131.733 128.068 132.161 126.184 133.016 124.487C133.871 122.791 135.109 121.451 136.729 120.467C138.349 119.482 140.26 118.99 142.463 118.99C143.94 118.99 145.243 119.243 146.37 119.748C147.498 120.253 148.359 120.894 148.956 121.671V119.456H154.709V140.823H148.956V138.687V138.687ZM147.595 125.769C146.532 124.643 145.107 124.08 143.318 124.08C141.504 124.08 140.072 124.643 139.023 125.769C137.973 126.896 137.448 128.353 137.448 130.14C137.448 131.875 137.986 133.313 139.061 134.452C140.137 135.592 141.556 136.162 143.318 136.162C145.133 136.162 146.565 135.624 147.614 134.549C148.664 133.474 149.189 132.005 149.189 130.14C149.189 128.353 148.658 126.896 147.595 125.769ZM178.366 121.438C179.7 123.018 180.368 125.271 180.368 128.197V140.823H174.42V128.197C174.42 125.323 173.046 123.885 170.299 123.885C169.236 123.885 168.277 124.306 167.422 125.148C166.567 125.99 166.165 127.446 166.217 129.518V140.823H160.424V119.456H166.217V121.36C166.916 120.661 167.798 120.104 168.86 119.69C169.923 119.275 170.947 119.068 171.932 119.068C174.886 119.068 177.031 119.858 178.366 121.438V121.438ZM202.255 138.687C201.763 139.36 200.914 139.962 199.709 140.493C198.504 141.024 197.188 141.29 195.763 141.29C193.56 141.29 191.648 140.797 190.029 139.813C188.409 138.829 187.171 137.489 186.316 135.792C185.461 134.096 185.033 132.212 185.033 130.14C185.033 128.068 185.461 126.184 186.316 124.487C187.171 122.791 188.409 121.451 190.029 120.467C191.648 119.482 193.56 118.99 195.763 118.99C197.24 118.99 198.542 119.243 199.67 119.748C200.797 120.253 201.659 120.894 202.255 121.671V111.454H208.009V140.823H202.255V138.687V138.687ZM200.895 125.769C199.832 124.643 198.406 124.08 196.618 124.08C194.804 124.08 193.372 124.643 192.322 125.769C191.273 126.896 190.748 128.353 190.748 130.14C190.748 131.875 191.286 133.313 192.361 134.452C193.437 135.592 194.856 136.162 196.618 136.162C198.432 136.162 199.864 135.624 200.914 134.549C201.964 133.474 202.488 132.005 202.488 130.14C202.488 128.353 201.957 126.896 200.895 125.769ZM218.525 139.833C216.75 138.836 215.344 137.482 214.307 135.773C213.27 134.064 212.752 132.199 212.752 130.179C212.752 128.185 213.27 126.333 214.307 124.623C215.344 122.914 216.75 121.561 218.525 120.564C220.3 119.567 222.238 119.068 224.337 119.068C226.436 119.068 228.38 119.567 230.169 120.564C231.957 121.561 233.376 122.914 234.425 124.623C235.475 126.333 236 128.185 236 130.179C236 132.199 235.475 134.064 234.425 135.773C233.376 137.482 231.957 138.836 230.169 139.833C228.38 140.83 226.436 141.328 224.337 141.328C222.238 141.328 220.3 140.83 218.525 139.833ZM221.382 124.954C220.475 125.485 219.763 126.21 219.244 127.129C218.726 128.049 218.467 129.065 218.467 130.179C218.467 131.344 218.719 132.387 219.225 133.306C219.73 134.226 220.43 134.951 221.324 135.482C222.218 136.013 223.223 136.278 224.337 136.278C225.426 136.278 226.417 136.013 227.311 135.482C228.205 134.951 228.912 134.219 229.43 133.287C229.948 132.354 230.207 131.318 230.207 130.179C230.207 129.065 229.948 128.049 229.43 127.129C228.912 126.21 228.205 125.485 227.311 124.954C226.417 124.423 225.426 124.157 224.337 124.157C223.274 124.157 222.29 124.423 221.382 124.954V124.954Z" fill="#FDFFFC"/>
</svg>
